# This file uses centimeters as units for non-parametric coordinates.

mtllib arrow45.mtl
g default
v 0.311607 0.322214 -0.012990
v 0.322214 0.311607 -0.012990
v 0.327517 0.306304 -0.000000
v 0.322214 0.311607 0.012990
v 0.311607 0.322214 0.012990
v 0.306304 0.327517 0.000000
v 0.028764 0.039371 -0.012990
v 0.039371 0.028764 -0.012990
v 0.044674 0.023461 -0.000000
v 0.039371 0.028764 0.012990
v 0.028764 0.039371 0.012990
v 0.023461 0.044674 0.000000
v 0.316910 0.316910 0.000000
v 0.034068 0.034068 0.000000
v 0.017678 0.053033 -0.043301
v 0.053033 0.017678 -0.043301
v 0.070711 -0.000000 -0.000000
v 0.053033 0.017678 0.043301
v 0.017678 0.053033 0.043301
v 0.000000 0.070711 0.000000
v -0.035355 -0.035355 0.000000
vt 0.578125 0.020934
vt 0.421875 0.020934
vt 0.343750 0.156250
vt 0.421875 0.291566
vt 0.578125 0.291566
vt 0.656250 0.156250
vt 0.375000 0.312500
vt 0.416667 0.312500
vt 0.458333 0.312500
vt 0.500000 0.312500
vt 0.541667 0.312500
vt 0.583333 0.312500
vt 0.625000 0.312500
vt 0.375000 0.688440
vt 0.416667 0.688440
vt 0.458333 0.688440
vt 0.500000 0.688440
vt 0.541667 0.688440
vt 0.583333 0.688440
vt 0.625000 0.688440
vt 0.578125 0.708434
vt 0.421875 0.708434
vt 0.343750 0.843750
vt 0.421875 0.979066
vt 0.578125 0.979066
vt 0.656250 0.843750
vt 0.500000 0.150000
vt 0.500000 0.837500
vt 0.625000 0.033494
vt 0.750000 0.250000
vt 0.625000 0.466506
vt 0.375000 0.466506
vt 0.250000 0.250000
vt 0.375000 0.033494
vt 0.250000 0.500000
vt 0.333333 0.500000
vt 0.500000 1.000000
vt 0.416667 0.500000
vt 0.500000 0.500000
vt 0.583333 0.500000
vt 0.666667 0.500000
vt 0.750000 0.500000
vn -0.000000 0.000000 -1.000000
vn -0.000000 0.000000 -1.000000
vn -0.000000 0.000000 -1.000000
vn -0.000000 0.000000 -1.000000
vn 0.612372 -0.612372 -0.500000
vn 0.612372 -0.612372 -0.500000
vn 0.612372 -0.612372 -0.500000
vn 0.612372 -0.612372 -0.500000
vn 0.612373 -0.612373 0.500000
vn 0.612373 -0.612373 0.500000
vn 0.612373 -0.612373 0.500000
vn 0.612373 -0.612373 0.500000
vn 0.000000 -0.000000 1.000000
vn 0.000000 -0.000000 1.000000
vn 0.000000 -0.000000 1.000000
vn 0.000000 -0.000000 1.000000
vn -0.612372 0.612372 0.500000
vn -0.612372 0.612372 0.500000
vn -0.612372 0.612372 0.500000
vn -0.612372 0.612372 0.500000
vn -0.612373 0.612373 -0.500000
vn -0.612373 0.612373 -0.500000
vn -0.612373 0.612373 -0.500000
vn -0.612373 0.612373 -0.500000
vn 0.707107 0.707107 0.000002
vn 0.707107 0.707107 0.000003
vn 0.707107 0.707107 0.000002
vn 0.707107 0.707107 -0.000002
vn 0.707107 0.707107 0.000002
vn 0.707107 0.707107 0.000003
vn 0.707107 0.707107 0.000002
vn -0.707107 -0.707107 -0.000000
vn -0.707107 -0.707107 -0.000000
vn -0.707107 -0.707107 -0.000000
vn -0.707107 -0.707107 0.000000
vn -0.707107 -0.707107 -0.000000
vn -0.707107 -0.707107 -0.000000
vn -0.707107 -0.707107 0.000000
vn 0.707107 0.707107 0.000000
vn 0.707107 0.707107 0.000000
vn 0.707107 0.707107 0.000000
vn 0.707107 0.707107 0.000000
vn 0.707107 0.707107 0.000000
vn 0.707107 0.707107 0.000000
vn -0.280976 -0.280976 -0.917663
vn -0.280976 -0.280976 -0.917663
vn -0.280976 -0.280976 -0.917663
vn 0.280976 -0.842927 -0.458832
vn 0.280976 -0.842927 -0.458832
vn 0.280976 -0.842927 -0.458832
vn 0.280976 -0.842927 0.458831
vn 0.280976 -0.842927 0.458831
vn 0.280976 -0.842927 0.458831
vn -0.280976 -0.280976 0.917663
vn -0.280976 -0.280976 0.917663
vn -0.280976 -0.280976 0.917663
vn -0.842927 0.280976 0.458831
vn -0.842927 0.280976 0.458831
vn -0.842927 0.280976 0.458831
vn -0.842927 0.280976 -0.458831
vn -0.842927 0.280976 -0.458831
vn -0.842927 0.280976 -0.458831
s off
g pCylinder2
usemtl lambert2SG
f 1/7/1 2/8/2 8/15/3 7/14/4
f 2/8/5 3/9/6 9/16/7 8/15/8
f 3/9/9 4/10/10 10/17/11 9/16/12
f 4/10/13 5/11/14 11/18/15 10/17/16
f 5/11/17 6/12/18 12/19/19 11/18/20
f 6/12/21 1/13/22 7/20/23 12/19/24
s 1
f 2/2/25 1/1/26 13/27/27
f 3/3/28 2/2/25 13/27/27
f 4/4/29 3/3/28 13/27/27
f 5/5/30 4/4/29 13/27/27
f 6/6/31 5/5/30 13/27/27
f 1/1/26 6/6/31 13/27/27
s 2
f 7/25/32 8/24/33 14/28/34
f 8/24/33 9/23/35 14/28/34
f 9/23/35 10/22/36 14/28/34
f 10/22/36 11/21/37 14/28/34
f 11/21/37 12/26/38 14/28/34
f 12/26/38 7/25/32 14/28/34
s off
f 15/29/39 20/30/40 19/31/41 18/32/42 17/33/43 16/34/44
f 15/35/45 16/36/46 21/37/47
f 16/36/48 17/38/49 21/37/50
f 17/38/51 18/39/52 21/37/53
f 18/39/54 19/40/55 21/37/56
f 19/40/57 20/41/58 21/37/59
f 20/41/60 15/42/61 21/37/62
