# This file uses centimeters as units for non-parametric coordinates.

mtllib arrow452.mtl
g default
v 0.235888 0.307725 0.225281
v 0.225281 0.307725 0.235888
v 0.213483 0.316910 0.234696
v 0.212291 0.326096 0.222897
v 0.222897 0.326096 0.212291
v 0.234696 0.316910 0.213483
v 0.035888 0.024882 0.025281
v 0.025281 0.024882 0.035888
v 0.013483 0.034068 0.034696
v 0.012291 0.043253 0.022897
v 0.022897 0.043253 0.012291
v 0.034696 0.034068 0.013483
v 0.224089 0.316910 0.224089
v 0.024089 0.034068 0.024089
v 0.064328 0.004737 0.028973
v 0.028973 0.004737 0.064328
v -0.010355 0.035355 0.060355
v -0.014328 0.065974 0.021027
v 0.021027 0.065974 -0.014328
v 0.060355 0.035355 -0.010355
v -0.025000 -0.035355 -0.025000
vt 0.578125 0.020934
vt 0.421875 0.020934
vt 0.343750 0.156250
vt 0.421875 0.291566
vt 0.578125 0.291566
vt 0.656250 0.156250
vt 0.375000 0.312500
vt 0.416667 0.312500
vt 0.458333 0.312500
vt 0.500000 0.312500
vt 0.541667 0.312500
vt 0.583333 0.312500
vt 0.625000 0.312500
vt 0.375000 0.688440
vt 0.416667 0.688440
vt 0.458333 0.688440
vt 0.500000 0.688440
vt 0.541667 0.688440
vt 0.583333 0.688440
vt 0.625000 0.688440
vt 0.578125 0.708434
vt 0.421875 0.708434
vt 0.343750 0.843750
vt 0.421875 0.979066
vt 0.578125 0.979066
vt 0.656250 0.843750
vt 0.500000 0.150000
vt 0.500000 0.837500
vt 0.625000 0.033494
vt 0.750000 0.250000
vt 0.625000 0.466506
vt 0.375000 0.466506
vt 0.250000 0.250000
vt 0.375000 0.033494
vt 0.250000 0.500000
vt 0.333333 0.500000
vt 0.500000 1.000000
vt 0.416667 0.500000
vt 0.500000 0.500000
vt 0.583333 0.500000
vt 0.666667 0.500000
vt 0.750000 0.500000
vn 0.500000 -0.707107 0.500000
vn 0.500000 -0.707107 0.500000
vn 0.500000 -0.707107 0.500000
vn 0.500000 -0.707107 0.500000
vn -0.362372 -0.353553 0.862372
vn -0.362372 -0.353553 0.862372
vn -0.362372 -0.353553 0.862372
vn -0.362372 -0.353553 0.862372
vn -0.862372 0.353553 0.362373
vn -0.862372 0.353553 0.362373
vn -0.862372 0.353553 0.362373
vn -0.862372 0.353553 0.362373
vn -0.500000 0.707107 -0.500000
vn -0.500000 0.707107 -0.500000
vn -0.500000 0.707107 -0.500000
vn -0.500000 0.707107 -0.500000
vn 0.362372 0.353553 -0.862372
vn 0.362372 0.353553 -0.862372
vn 0.362372 0.353553 -0.862372
vn 0.362372 0.353553 -0.862372
vn 0.862372 -0.353553 -0.362373
vn 0.862372 -0.353553 -0.362373
vn 0.862372 -0.353553 -0.362373
vn 0.862372 -0.353553 -0.362373
vn 0.499999 0.707108 0.499999
vn 0.499998 0.707109 0.499998
vn 0.499999 0.707108 0.499999
vn 0.500001 0.707106 0.500001
vn 0.499999 0.707108 0.499999
vn 0.499998 0.707109 0.499998
vn 0.499999 0.707108 0.499999
vn -0.500000 -0.707107 -0.500000
vn -0.500000 -0.707107 -0.500000
vn -0.500000 -0.707107 -0.500000
vn -0.500000 -0.707107 -0.500000
vn -0.500000 -0.707107 -0.500000
vn -0.500000 -0.707107 -0.500000
vn -0.500000 -0.707107 -0.500000
vn 0.500000 0.707107 0.500000
vn 0.500000 0.707107 0.500000
vn 0.500000 0.707107 0.500000
vn 0.500000 0.707107 0.500000
vn 0.500000 0.707107 0.500000
vn 0.500000 0.707107 0.500000
vn 0.260152 -0.929861 0.260151
vn 0.260152 -0.929861 0.260151
vn 0.260152 -0.929861 0.260151
vn -0.531215 -0.605419 0.592687
vn -0.531215 -0.605419 0.592687
vn -0.531216 -0.605419 0.592687
vn -0.990047 0.043467 0.133856
vn -0.990047 0.043467 0.133856
vn -0.990047 0.043467 0.133856
vn -0.657511 0.367910 -0.657511
vn -0.657511 0.367910 -0.657511
vn -0.657511 0.367910 -0.657511
vn 0.133856 0.043467 -0.990047
vn 0.133856 0.043467 -0.990047
vn 0.133856 0.043467 -0.990047
vn 0.592687 -0.605419 -0.531216
vn 0.592687 -0.605419 -0.531216
vn 0.592687 -0.605419 -0.531216
s off
g pCylinder2
usemtl lambert2SG
f 1/7/1 2/8/2 8/15/3 7/14/4
f 2/8/5 3/9/6 9/16/7 8/15/8
f 3/9/9 4/10/10 10/17/11 9/16/12
f 4/10/13 5/11/14 11/18/15 10/17/16
f 5/11/17 6/12/18 12/19/19 11/18/20
f 6/12/21 1/13/22 7/20/23 12/19/24
s 1
f 2/2/25 1/1/26 13/27/27
f 3/3/28 2/2/25 13/27/27
f 4/4/29 3/3/28 13/27/27
f 5/5/30 4/4/29 13/27/27
f 6/6/31 5/5/30 13/27/27
f 1/1/26 6/6/31 13/27/27
s 2
f 7/25/32 8/24/33 14/28/34
f 8/24/33 9/23/35 14/28/34
f 9/23/35 10/22/36 14/28/34
f 10/22/36 11/21/37 14/28/34
f 11/21/37 12/26/38 14/28/34
f 12/26/38 7/25/32 14/28/34
s off
f 15/29/39 20/30/40 19/31/41 18/32/42 17/33/43 16/34/44
f 15/35/45 16/36/46 21/37/47
f 16/36/48 17/38/49 21/37/50
f 17/38/51 18/39/52 21/37/53
f 18/39/54 19/40/55 21/37/56
f 19/40/57 20/41/58 21/37/59
f 20/41/60 15/42/61 21/37/62
